<svg xmlns="http://www.w3.org/2000/svg" viewBox="0 0 64 64"><path fill="#231f20" d="M57,2H7A5.006,5.006,0,0,0,2,7V57a5.006,5.006,0,0,0,5,5H57a5.006,5.006,0,0,0,5-5V7A5.006,5.006,0,0,0,57,2ZM7,4H57a3,3,0,0,1,3,3V35.586L48.707,24.293a1,1,0,0,0-1.414,0L31.5,40.086l-8.793-8.793a1,1,0,0,0-1.414,0L4,48.586V7A3,3,0,0,1,7,4ZM52.432,30.846l-1.425.952-2.453-1.631a1,1,0,0,0-1.11,0L45.007,31.8l-1.436-.954L48,26.414ZM28.482,39.9,26.033,41.75,22.6,39.2a1,1,0,0,0-1.2,0l-3.39,2.549-2.486-1.859L22,33.414ZM57,60H7a3,3,0,0,1-3-3V51.414L14.1,41.319,17.412,43.8a1,1,0,0,0,1.2,0L22,41.249,25.442,43.8a1,1,0,0,0,1.2-.006l3.266-2.474L42.293,53.707a1,1,0,0,0,1.414-1.414L32.914,41.5l9.214-9.214,2.326,1.547a1,1,0,0,0,1.109,0L48,32.2l2.453,1.631a1,1,0,0,0,1.109,0l2.31-1.544L60,38.414V57A3,3,0,0,1,57,60Z"/><path fill="#231f20" d="M38,18a4,4,0,1,0-4-4A4,4,0,0,0,38,18Zm0-6a2,2,0,1,1-2,2A2,2,0,0,1,38,12Z"/></svg>