<?xml version="1.0" encoding="UTF-8"?><!DOCTYPE svg PUBLIC "-//W3C//DTD SVG 1.1//EN" "http://www.w3.org/Graphics/SVG/1.1/DTD/svg11.dtd"><svg xmlns="http://www.w3.org/2000/svg" xmlns:xlink="http://www.w3.org/1999/xlink" version="1.1" x="0px" y="0px" width="24px" height="24.002px" viewBox="0 0 24 24.002" xml:space="preserve"><g id="Frames-24px" fill="none"><path d="M0 0h24v24.002H0z"/><path d="M0 0h24v24.002H0z"/></g><g fill="#757575" id="Outline"><circle cx="12.002" cy="12.004" r="3"/><path d="M22.002 11.004h-2.069a8.01 8.01 0 0 0-6.931-6.931V2.004h-2v2.069a8.01 8.01 0 0 0-6.931 6.931H2.002v2h2.069a8.01 8.01 0 0 0 6.931 6.931v2.069h2v-2.069a8.01 8.01 0 0 0 6.931-6.931h2.069v-2zm-10 7c-3.309 0-6-2.691-6-6s2.691-6 6-6 6 2.691 6 6-2.691 6-6 6z"/></g><metadata><rdf:RDF xmlns:rdf="http://www.w3.org/1999/02/22-rdf-syntax-ns#" xmlns:rdfs="http://www.w3.org/2000/01/rdf-schema#" xmlns:dc="http://purl.org/dc/elements/1.1/"><rdf:Description about="https://iconscout.com/legal#licenses" dc:title="location,gps,on" dc:description="location,gps,on" dc:publisher="Iconscout" dc:date="2017-09-21" dc:format="image/svg+xml" dc:language="en"><dc:creator><rdf:Bag><rdf:li>Vincent Le Moign</rdf:li></rdf:Bag></dc:creator></rdf:Description></rdf:RDF></metadata></svg>