<?xml version="1.0" encoding="UTF-8" standalone="no"?><svg xmlns="http://www.w3.org/2000/svg" xmlns:xlink="http://www.w3.org/1999/xlink" width="21px" height="20px" viewBox="0 0 21 20" version="1.1"><title>search_right [#1505]</title><g id="Page-1" stroke="none" stroke-width="1" fill="none" fill-rule="evenodd"><g id="Dribbble-Light-Preview" transform="translate(-259.000000, -280.000000)" fill="#000"><g id="icons" transform="translate(56.000000, 160.000000)"><path d="M207.455 134.343l1.485 1.414-4.454 4.243-1.486-1.414 4.455-4.243zM215.6 134c-3.473 0-6.3-2.692-6.3-6 0-3.309 2.827-6 6.3-6 3.474 0 6.3 2.691 6.3 6 0 3.308-2.826 6-6.3 6zm0-14c-4.639 0-8.4 3.582-8.4 8s3.761 8 8.4 8c4.64 0 8.4-3.582 8.4-8s-3.76-8-8.4-8z" id="search_right-[#1505]"/></g></g></g><metadata><rdf:RDF xmlns:rdf="http://www.w3.org/1999/02/22-rdf-syntax-ns#" xmlns:rdfs="http://www.w3.org/2000/01/rdf-schema#" xmlns:dc="http://purl.org/dc/elements/1.1/"><rdf:Description about="https://iconscout.com/legal#licenses" dc:title="search,right" dc:description="search,right" dc:publisher="Iconscout" dc:date="2017-09-15" dc:format="image/svg+xml" dc:language="en"><dc:creator><rdf:Bag><rdf:li>Alexandru Stoica</rdf:li></rdf:Bag></dc:creator></rdf:Description></rdf:RDF></metadata></svg>